<?xml version="1.0" encoding="UTF-8"?>
<svg id="b" xmlns="http://www.w3.org/2000/svg" width="36.64" height="29.37402" viewBox="0 0 36.64 29.37402"><defs><style>.d{fill:#c00c3f;}.e{fill:#231f20;}.f{fill:#fff;}.g{fill:#6d6e71;}</style></defs><g id="c"><path class="f" d="M36.64,12.439v-1.52399c0-.85101-.69-1.54001-1.54001-1.54001h-.841c.194-.49899.123-1.07599-.222-1.51199l-.45399-.57498C29.92699,2.65601,24.45,0,18.556,0S7.185,2.65601,3.53,7.28802l-.454.57498c-.345.43701-.416,1.01401-.221,1.513h-1.31499c-.85001,0-1.54.689-1.54,1.54001v1.556c0,.85001.68999,1.54001,1.54,1.54001h.628v4.164c0,.84998.68999,1.53897,1.54,1.53897h1.92799c.85001,0,1.54-.689,1.54-1.53897v-2.17603c.05.19501.133.38101.256.54401l1.214,1.61801c-.173.14301-.316.32401-.415.535-.253.54199-.169,1.18198.215,1.64099l2.185,2.60501c.293.349.725.55099,1.18.55099h1.563l3.951,5.26398c.039.05301.083.10202.128.14902.011.01099.022.01999.033.03101.04099.03998.085.078.13.11298.017.013.035.026.053.03802.046.03299.09399.06299.143.09.015.008.029.017.044.02499.065.03299.132.061.2.08499.005.00201.009.004.013.005.01099.004.022.005.033.009.057.017.116.03201.175.04199.02.004.04.008.061.01102.072.00998.144.017.217.01801h.002c.073-.00101.146-.00803.217-.01801.021-.00302.041-.00702.062-.01102.059-.00998.117-.02499.174-.04199.011-.004.023-.005.034-.009.004-.00101.008-.004.012-.005.069-.02399.13599-.052.2-.08499.016-.008.03-.017.045-.02499.049-.02701.096-.05701.142-.08902.01801-.013.036-.026.054-.03998.04501-.034.08801-.07202.12901-.112.01099-.01001.02299-.02002.033-.03101.046-.047.089-.09601.129-.14902l3.95-5.26398h1.564c.456,0,.888-.202,1.18-.55099l2.185-2.60501c.178-.21201.289-.46399.33401-.72601.006-.00198.01099-.004.016-.00598.17599.07001.367.10898.568.10898h5.51499c.85001,0,1.54001-.689,1.54001-1.53897v-2.86603c0-.50897-.25201-.98499-.67201-1.27197l-.26599-.181c.55099-.23502.938-.78101.938-1.41803"/><rect class="d" x="18.5975" y="10.91611" width="1.969" height="7.259"/><polygon class="d" points="26.5377 14.8298 23.6037 10.91583 21.4067 10.91583 22.0017 11.71082 22.0017 18.17581 23.9137 18.17581 23.9137 14.26083 26.8487 18.17581 28.4497 18.17581 28.4497 10.91583 26.5377 10.91583 26.5377 14.8298"/><polygon class="d" points="15.4053 10.91602 15.4053 15.35504 14.6573 16.35202 13.9093 15.35504 13.9093 10.91602 12.0343 10.91602 12.0343 15.35504 11.2863 16.35202 10.5383 15.35504 10.5383 10.91602 8.6633 10.91602 8.6633 15.62003 10.5813 18.17502 11.9913 18.17502 12.9713 16.86902 13.9523 18.17502 15.3623 18.17502 17.2803 15.62003 17.2803 10.91602 15.4053 10.91602"/><polygon class="e" points="18.5563 24.66052 18.5563 27.83353 24.0683 20.48853 21.6873 20.48853 18.5563 24.66052"/><polygon class="d" points="18.5563 27.8335 18.5563 24.66052 15.4243 20.48853 13.0443 20.48853 18.5563 27.8335"/><polygon class="g" points="18.217 8.59091 16.593 8.59091 16.593 5.85794 15.807 5.85794 15.807 9.25293 18.217 9.25293 18.217 8.59091"/><path class="g" d="M19.9828,9.30341c.528,0,1.042-.13397,1.323-.33099v-1.64798h-1.362v.63498h.639v.59399c-.118.04401-.348.09003-.567.09003-.705,0-.941-.36002-.941-1.08801,0-.69598.223-1.104.931-1.104.391,0,.616.12302.8.358l.488-.448c-.296-.42599-.818-.55499-1.306-.55499-1.097,0-1.675.599-1.675,1.742,0,1.13898.52,1.75497,1.67001,1.75497"/><polygon class="g" points="9.6265 19.34821 11.8115 21.95322 25.3025 21.95322 27.4875 19.34821 9.6265 19.34821"/><path class="f" d="M14.5144,21.0213c.116.06003.21899.09003.34.09003.173,0,.239-.06403.239-.14902,0-.077-.064-.117-.095-.133-.098-.05099-.212-.08499-.32-.13-.156-.07898-.236-.15298-.236-.349,0-.233.166-.37299.472-.37299.131,0,.294.02698.409.09799l-.084.194c-.082-.05099-.2-.08499-.32301-.08499-.159,0-.225.05798-.225.14398,0,.043.014.07602.04.10001.026.021.053.03699.079.04999.082.03802.205.07901.306.12802.121.061.223.13699.223.34198,0,.23203-.182.37701-.481.37701-.13499,0-.294-.03299-.436-.10699l.092-.19702Z"/><polygon class="f" points="16.28241 19.99722 17.07941 19.99722 17.07941 20.20422 16.53241 20.20422 16.53241 20.53024 17.06041 20.53024 17.06041 20.73123 16.53241 20.73123 16.53241 21.09824 17.1004 21.09824 17.1004 21.30225 16.28241 21.30225 16.28241 19.99722"/><path class="f" d="M19.1683,20.65625c0,.44498-.192.66898-.589.66898-.407,0-.542-.26498-.542-.68198,0-.44601.188-.66602.585-.66602.402,0,.54601.26001.54601.67902M18.29031,20.66522c0,.25.06499.45502.284.45502.258,0,.334-.17401.334-.48901,0-.24698-.062-.45599-.284-.45599-.249,0-.334.17902-.334.48999"/><path class="f" d="M20.12021,19.99722h.24799v.80502c0,.19998.063.32098.22601.32098.19199,0,.26099-.09598.26099-.35498v-.77103h.249v.78702c0,.37799-.184.54099-.508.54099-.32,0-.476-.16098-.476-.556v-.772Z"/><polygon class="f" points="22.10541 19.99722 22.35541 19.99722 22.35541 21.09824 22.8624 21.09824 22.8624 21.30225 22.10541 21.30225 22.10541 19.99722"/><path class="d" d="M18.5563,3.44452v-1.905c-5.42001,0-10.456,2.44302-13.817,6.70203l-.455.57599.694.92499h2.381l-.661-.88199c2.987-3.45099,7.268-5.41602,11.858-5.41602"/><path class="e" d="M32.82841,8.81732l-.454-.57498c-3.362-4.26001-8.398-6.702-13.818-6.702v1.90399c4.589,0,8.87,1.965,11.858,5.41602l-.662.88199h2.382l.694-.92502Z"/><polygon class="d" points="1.54021 12.4715 3.70821 12.4715 3.70821 18.17551 5.6362 18.17551 5.6362 12.4715 7.8032 12.4715 7.8032 10.9155 1.54021 10.9155 1.54021 12.4715"/><polygon class="d" points="35.10001 12.439 35.10001 10.91501 29.709 10.91501 29.709 13.694 33.174 16.05801 33.174 16.60501 29.585 16.60501 29.585 18.17603 35.10001 18.17603 35.10001 15.31 31.613 12.931 31.613 12.439 35.10001 12.439"/></g></svg>